<?xml version="1.0" encoding="UTF-8"?>
<svg id="Layer_1" xmlns="http://www.w3.org/2000/svg" version="1.1" viewBox="0 0 469.964 478.666">
  <!-- Generator: Adobe Illustrator 29.8.1, SVG Export Plug-In . SVG Version: 2.1.1 Build 2)  -->
  <defs>
    <style>
      .st0 {
        fill: #fff;
      }
    </style>
  </defs>
  <path class="st0" d="M175.204,8.402c4.928-.083,4.929-7.417,0-7.5h-3.015c-4.928.084-4.929,7.417,0,7.5h3.015Z"/>
  <path class="st0" d="M218.804,179.707l6.027-1.16c4.823-1.013,3.439-8.216-1.417-7.365l-6.027,1.16c-4.842,1.022-3.414,8.223,1.417,7.365Z"/>
  <path class="st0" d="M246.672,306.441h-4.184c-4.928.083-4.93,7.417,0,7.5h4.184c4.928-.084,4.93-7.417,0-7.5Z"/>
  <path class="st0" d="M209.858,381.147c4.25.799,8.636.457,12.711-.991,4.6-1.756,2.113-8.652-2.553-7.053-2.839.999-5.893,1.227-8.849.659-4.866-.78-6.149,6.443-1.309,7.385Z"/>
  <path class="st0" d="M179.246,379.253c.144.538,8.939,2.253,12.653,1.356-1.137,5.3-1.785,13.435,2.236,20.671,2.42,4.276,8.915.652,6.556-3.642-5.676-10.6,1.738-17.736-1.065-27.024-2.924-9.556.814-16.173,1.006-16.5,2.452-4.239-3.8-8.038-6.425-3.869-.258.284-5.722,9.945-1.721,22.709-3.403.704-6.932.508-10.236-.57-4.534-1.875-7.461,4.809-3.004,6.869Z"/>
  <path class="st0" d="M216.655,347.781c.135.037,13.6,3.881,20.612,24.634.663,1.962,2.791,3.016,4.753,2.353,1.962-.663,3.016-2.791,2.353-4.753-8.457-24.839-28.838-34.458-30.364-26.83-.538,2,.646,4.057,2.646,4.596Z"/>
  <path class="st0" d="M335.704,182.633c-.092-5.38-8.094-5.379-8.185,0,.092,5.374,8.094,5.373,8.185,0Z"/>
  <path class="st0" d="M51.792,7.167c-2.047-3.652-6.229-5.549-10.325-4.684C24.767,3.331,10.033,17.783,3.327,31.175-1.861,41.75-.028,50.535,2.427,56.042c1.141,2.604,1.317,5.529.495,8.251-4.827,15.6,6.993,31.194,22.855,33.414l.319,7.887c-12.124-1.261-19.352,12.534-12.415,22.212-3.296,5.226-3.563,11.81-.7,17.285-4.506,8.424,1.562,20.211,11.343,20.216l4.2.108.718,17.721c.713,12.277,18.516,12.483,19.6.272l.267-3.905c4.13,10.2,7.984,19.779,9.6,23.949,1.22,7.589,7.309,21.282,22.333,23.133,3.627,3.929,16.625,16.884,41.842,30.706,9.854,5.4,17.067,14.148,19.82,24.014-7.614,14.243-5.939,18.111.662,31.852-13.194,25.792,5.9,24.773,5.047,39.456-.9,9.682-1.01,25.625,11.293,26.4.444,2.432.22,25.258.267,28.25-13.018,9.075-17.047,22.4-7.39,31.706l-.658,10.522c-.901,13.202,7.407,25.287,20.056,29.175,85.552-6.924,115.278-55.438,120.385-72.808,3.192-8.317-3.265-19.768-12.74-18.87l.315-13.144c7.741-9.436,21.757-21.466,45.331-27.082,3.01,5.681,7.279,10.598,12.48,14.376-1.587,7.351-3.082,27.746,18.667,55.256-1.713,4.611-3.712,9.11-5.985,13.472-3.982,7.395-6.994,23.574,1.877,27.938,5.231,2.472,11.864-1.544,12.053-7.364.058-.926.184-1.847.378-2.754,6.639,7.879-1.085,15.582,7.507,20.983,3.367,1.963,7.606,1.589,10.578-.933,10.274-8.528,12.8-32.257,2.225-52.367,2.011-13.332,8.441-65.2-8.121-87.226,32.765-26.9,63.749-67.635,64.406-133.685.052-1.567-.839-3.014-2.263-3.671-1.73-.724-3.729-.059-4.681,1.556-.1.174-10.481,17.5-25.913,21.179-1.167.277-1.5-.078-1.733-.337-7.177-9.985,6.521-50.788,20.971-52.251,4.011,1.3,12.264-31.687,3.049-46.244-.328.276-23.487-22.859-20.627-48.885,15.389-41.973,56.959-57.339,57.389-57.494,3.791-1.263,2.976-7.217-1.192-7.284-40.862-3.689-76.6,28.836-88.621,59.89-6.145,12.425-17.614,24.968-26.169,33.316-6.904,6.704-12.157,14.92-15.345,24-1.588,4.62-3.428,9.149-5.513,13.567-2.161,4.541,4.3,7.988,6.668,3.442,2.247-4.739,4.228-9.599,5.933-14.559,4.489-14.4,15.958-22.628,25.815-34.183-8.413,29.356-4.886,54.913-27.613,81.378-3.069,3.769,2.668,8.557,5.81,4.745,12.28-14.829,20.107-32.835,22.571-51.931,8.655-58.437,28.522-100.885,78.708-111.273-16.79,9.113-44.465,35.9-49.4,68.249-2.24,12.5-9.439,55.426-8.056,83.1.252,5.517-.723,11.022-2.856,16.116-23.5,53.351-45.622,39.052-112.019,80.546-36.472,21.736-87.008,68.179-113.617,112.671-.611,1.018-1.77,1.573-2.946,1.411-4.625-.381-4.366-13.312-3.913-17.333,8.22-15.72,17.593-30.81,28.042-45.146,1.247-1.629,1.018-3.946-.523-5.3-1.605-1.31-3.968-1.07-5.278.535-.042.052-.083.104-.122.158-8.787,12.058-16.847,24.63-24.138,37.647-1.544-2.505-3.245-4.91-5.093-7.2-5.2-6.756-.684-13.45,2.122-19.978,1.574-2.528,17.963-28.681,30.9-42.844,3.28-3.61-2.206-8.681-5.54-5.057-10.254,11.232-22.184,29.062-28.125,38.269-2.064-4.05-4.121-8.989-1.953-13.417,4.02-9.418,13.208-27.487,30.89-47.035,4.181,13.242,14.063,20.345,16.689,18.533,1.484-.805,2.035-2.66,1.231-4.144-.01-.019-.02-.037-.031-.056-10.588-19.752-1.767-35.273-1.433-35.946,2.259-4.361,8.822-1.134,6.724,3.324-3.621,7.095-4.408,25.544,8.948,36.08-3.9,4.623-11.4,13.751-17.821,23.01-1.201,1.687-.808,4.029.879,5.23,1.687,1.201,4.029.808,5.23-.879.018-.026.036-.051.054-.077,6.486-9.354,14.318-18.817,17.94-23.09,4.574,2.207,6.147,2.507,7.639,2.668,8.9.537,8.713-6.964,4.718-10.743-10.827-10.24-9.584-24.473-9.5-25.18.25-2.044,2.109-3.499,4.153-3.25,1.847.225,3.245,1.778,3.277,3.639.864,20.489,23.156,24.986,26.961,24.275,1.645-.317,2.887-1.677,3.053-3.344.38-3.718.578-6.651.676-8.84,21.68,4.758,31.649-.983,34.1-5.8.67-1.31.152-2.915-1.158-3.585-.167-.086-.343-.153-.525-.202-6.733-1.77-26.7-8.626-24.282-27.236.266-2.053.851-4.019,2.876-4.455,2.021-.435,4.014.848,4.454,2.868.194.873,4.506,19.3,21.851,19.93,8.251-2.132,13.677-5.683,9.256-10.093-4.08-3.01-6.9-7.425-7.916-12.393,7.232-2.191,13.414-6.95,17.382-13.381.727-1.357.552-3.02-.443-4.195l-6.455-7.629c21.484-7.494,23.107-30,18.385-30.7-1.312-.571-2.834-.346-3.924.58-4.412,3.748-7.606,1.278-8.532.361-7.535-9.366-20.843-11.7-28.966-10.171-11.427,2.153-17.841,11.479-17.9,11.574-2.817,4.021-8.889-.025-6.238-4.164,3.548-6.007,18.723-18.748,35.972-14.674,2.665.53,5.323-.947,6.28-3.49,2.208-5.904,2.43-12.368.63-18.409-.715-1.958-2.883-2.966-4.841-2.251-.799.292-1.477.846-1.922,1.571-2.438,4.049-6.54,6.814-11.208,7.556-6.408.775-20.985-15.383-37.785-.427-8.837,7.867-9.672,20.094-9.678,20.219-.3,4.9-7.606,4.61-7.493-.306.025-.637.744-15.72,12.238-25.563,3.109-2.651,6.699-4.68,10.575-5.975,8.914-2.554,2.794-19.52,2.343-19.991-.963-1.851-3.245-2.571-5.095-1.607-.792.412-1.413,1.092-1.752,1.918-12.926,20.771-42.083,5.513-41.65,52.125-.046,4.911-7.009,5.113-7.5.169-1.056-7.147-.974-14.416.243-21.537.661-3.738-4.5-4.71-6.117-1.668-.426.721-10.44,17.84-12.152,31.045-1.3,10,3.989,16.959,7.667,20.493v23.506c-4.181.695-7.973,2.869-10.685,6.126-5.449.709-10.776,2.156-15.835,4.3-5.809-4.19-24.251-15.073-55.294-11.555-.872-5.27-3.955-14.451-14.4-24.35-5.347-5.065-12.5-12.71-20.776-22.193,5.27-5.1,3.686-14.805,3.89-21.431-.009-8.467-6.87-15.328-15.337-15.337h-4.477s.251-3.659.458-6.687c25.461-1.78,33.946-15.661,36-23.354.92-3.259,2.68-6.218,5.105-8.581,3.66-3.513,6.52-8.617,5.229-12.764-5.252-15.549,2.721-34.578,21.886-27.637,5.272,1.618,11.003-.008,14.641-4.153,7.476-8.421,17.967-14.446,18.07-14.505,3.172-1.667,2.033-6.868-1.583-7-8.036-.699-16.126.444-23.654,3.341-2.569,1.019-5.405,1.148-8.056.366C114.375,2.308,103.123-.363,94.239.041c-11.712.384-20.329,11.768-21.09,23.446-.7,8.058-3.934,13-9.1,13.923-5.7,1.013-12.534-2.831-15.235-8.575-4.333-8.659,7.905-12.796,2.978-21.668ZM174.081,366.593c1.127-1.54,13.738-18.569,35.045-39.552l32.992,1.366c.52.022,1.037.032,1.554.032,17.464.192,30.873-12.558,36.518-28.523,1.7-4.775-5.246-7.308-7.016-2.654-4.757,13.494-15.834,24.429-30.746,23.652l-25.805-1.069c26.576-24.86,64.125-53.175,108.461-67.646,29.757-8.839,37.985,48.683,34.928,65.113-.151,1.199.284,2.398,1.169,3.221,11.042,10.758,17.718,25.218,18.745,40.6,2.423,29.3-3.543,53.472-2.051,56.765,6.892,11.858,8.286,26.128,3.818,39.095-.631,1.959-3.488,6.372-5.678,5.2-.613-.329-.944-1.015-.822-1.7,1.49-9.193-2.989-15.862-8.449-22.675-6.778-6.569-9.927,9.5-9.873,12.171-.059.629-.617,1.091-1.246,1.032-.094-.009-.186-.029-.274-.06-2.649-4.626-.844-12.665,1.732-17.628,2.803-5.312,5.186-10.835,7.129-16.518.384-1.207.132-2.526-.668-3.508-30.2-37.571-13.533-53.3-19.436-56.877-13.229-7.943-17.576-24.532-16.5-33.568.218-1.896-1.023-3.652-2.882-4.081-26.893-6.579-28.964-17.319-31.566-28.837-.513-4.888-7.821-4.252-7.469.666.924,7.302,3.77,14.228,8.247,20.07-5.6,24.487-16.247,40.575-34.081,49.148-4.1,1.179-3.131,7.406,1.076,7.343,4.159-.653,8.021-3.45,11.822-6.257-.031,1.4-.771,28.641-.689,30.141-32.836,37.62-92.1,19.832-104.611,15.512-.047-5.207.233-25.333-.442-30.163.004-.01,2.839-3.998,7.068-9.811ZM200.696,187.233c-1.749,1.431-3.886,2.308-6.136,2.519v-11.696l4.322.783c4.099.794,3.399,5.688,1.814,8.394ZM199.723,158.005c3.724-2.1,8.208,1.524,11.353,3.29,1.094.64,2.437.684,3.571.118l8.651-4.324c5.748-2.592,12.312,2.482,16.314,9.924,5.123,9.69.049,20.275-8.08,26.878-3.7-5.561-11.877-7.111-15.637-.65-.61,1.062-1.818,2.474-5.257,2.474-1.03,0-2.38-.158-2.968-.908-.72-.919-.657-2.746-.483-3.789,4.44-7.154,2.358-17.957-6.969-19.558l-5.658-1.025c-.079-5.736-.648-9.402,5.163-12.431h0ZM74.431,158.476h0c13.424,14.038,23.614,22.271,23.643,34.3-.184,2.077,1.35,3.91,3.427,4.094.285.025.572.018.856-.022,39.859-5.386,52.934,11.11,57.664,11.711,3.874-.932,7.436-3.146,11.5-3.869-5.992,10.168-12.3,12.321-12.55,12.4-1.503.44-2.575,1.768-2.687,3.33-.451,6.66,17.725,7.015,20,6.566-.501,2.738-.737,5.517-.706,8.3-10.86,11.244-20.322,23.76-28.179,37.274-4.503-9.302-11.825-16.947-20.924-21.847-32.042-17.378-37.868-29.59-43.382-31.466-12.812-1.114-15.912-12.292-16.887-16.562h0c-10.72-36.011,6.915-44.607,8.225-44.21h0ZM41.348,182.896c-.108,1.275-1.229,2.22-2.503,2.112-1.149-.097-2.051-1.025-2.117-2.176l-.7-17.224,6.487.167-1.167,17.121ZM50.959,123.959h-16.359c-2.071,0-3.75,1.679-3.75,3.75s1.679,3.75,3.75,3.75h16.314c1.823,3.945,2.007,6.177.179,9.66h-16.493c-2.071,0-3.75,1.679-3.75,3.75s1.679,3.75,3.75,3.75h16.7c1.893,4.211,1.706,10.758-4.941,9.753l-21.852-.562c-1.795-.072-3.442-1.017-4.408-2.532-3.724-5.342,2.836-8.548.134-12.672-.451-.616-4.251-6.208,1.013-12.488,2.426-3.743-.483-4.2-2.3-8.33-1.672-3.654,1.077-8.779,5.2-8.694h24.299c5.256.511,4.341,6.98,2.514,10.865ZM47.987,85.77l-1.355,19.824h-13.033l-.811-20.035c-.107-2.398.932-4.704,2.8-6.211,4.872-4.243,13.055-.015,12.399,6.422Z"/>
</svg>